<svg width="59" height="59" viewBox="0 0 59 59" fill="none" xmlns="http://www.w3.org/2000/svg">
  <path fill-rule="evenodd" clip-rule="evenodd" d="M0.467159 3.57823C0.61453 3.8729 0.811024 4.11845 1.05664 4.36401C1.82921 5.15979 13.5693 16.9093 25.8285 29.1719C13.5183 41.4673 1.67896 53.2925 0.856876 54.1144C0.0217764 54.9493 -0.0273467 56.3244 0.709506 57.2576C1.49548 58.2889 2.77269 58.5836 3.85341 57.9451C4.14815 57.7487 4.44289 57.5031 4.68851 57.2576L29.304 32.6481C41.6164 44.9629 53.4583 56.8019 54.2574 57.6008C55.0925 58.4357 56.468 58.4848 57.4013 57.7481C58.4329 56.9623 58.7276 55.6854 58.089 54.605C57.8925 54.3103 57.6469 54.0157 57.4013 53.7701L32.7891 29.1639L57.4472 4.51189L57.791 4.16811C58.577 3.33321 58.6752 2.0072 57.9875 1.07409C57.2507 0.0918583 55.9734 -0.20281 54.8927 0.337415C54.598 0.48475 54.3524 0.681196 54.1068 0.926753C53.3339 1.69945 41.5844 13.4348 29.3144 25.6901L4.64266 1.02443L4.29879 0.680654C3.46369 -0.105129 2.13736 -0.203353 1.20401 0.484207C0.221542 1.22088 -0.0731992 2.49778 0.467159 3.57823Z" fill="white"/>
  <path d="M1.05664 4.36401L1.75328 3.68769L1.74824 3.6825L1.74311 3.67737L1.05664 4.36401ZM0.467159 3.57823L-0.401227 4.01253L-0.401227 4.01253L0.467159 3.57823ZM25.8285 29.1719L26.5147 29.8588L27.2019 29.1724L26.5152 28.4854L25.8285 29.1719ZM0.856876 54.1144L1.54334 54.8011H1.54335L0.856876 54.1144ZM0.709506 57.2576L1.48175 56.669L1.47668 56.6624L1.4715 56.6558L0.709506 57.2576ZM3.85341 57.9451L4.34726 58.7811L4.36996 58.7677L4.3919 58.753L3.85341 57.9451ZM4.68851 57.2576L5.37498 57.9442H5.37498L4.68851 57.2576ZM29.304 32.6481L29.9906 31.9616L29.3041 31.275L28.6175 31.9615L29.304 32.6481ZM54.2574 57.6008L53.5709 58.2874L54.2574 57.6008ZM57.4013 57.7481L56.813 56.9757L56.8063 56.9808L56.7998 56.986L57.4013 57.7481ZM58.089 54.605L58.9249 54.111L58.9115 54.0883L58.8968 54.0663L58.089 54.605ZM57.4013 53.7701L56.7148 54.4567L56.7148 54.4567L57.4013 53.7701ZM32.7891 29.1639L32.1026 28.4773L31.4158 29.1639L32.1026 29.8506L32.7891 29.1639ZM57.4472 4.51189L58.1336 5.19852L58.1336 5.19852L57.4472 4.51189ZM57.791 4.16811L58.4775 4.85474L58.4879 4.84434L58.498 4.83364L57.791 4.16811ZM57.9875 1.07409L58.7691 0.498018L58.7642 0.491436L57.9875 1.07409ZM54.8927 0.337415L55.3269 1.20589L55.3269 1.20589L54.8927 0.337415ZM54.1068 0.926753L54.7932 1.61339V1.61339L54.1068 0.926753ZM29.3144 25.6901L28.628 26.3768L29.3141 27.0627L30.0006 26.3771L29.3144 25.6901ZM4.64266 1.02443L5.32913 0.337796V0.337796L4.64266 1.02443ZM4.29879 0.680654L4.98526 -0.00598447L4.97486 -0.016383L4.96415 -0.0264617L4.29879 0.680654ZM1.20401 0.484207L0.628126 -0.297544L0.621544 -0.292608L1.20401 0.484207ZM1.74311 3.67737C1.54465 3.47896 1.42193 3.31665 1.33555 3.14393L-0.401227 4.01253C-0.192869 4.42914 0.0773961 4.75794 0.370172 5.05065L1.74311 3.67737ZM26.5152 28.4854C14.2501 16.217 2.51925 4.47668 1.75328 3.68769L0.360002 5.04033C1.13917 5.84291 12.8885 17.6016 25.1419 29.8583L26.5152 28.4854ZM1.54335 54.8011C2.36521 53.9794 14.2042 42.1545 26.5147 29.8588L25.1424 28.4849C12.8324 40.7802 0.992706 52.6057 0.170407 53.4278L1.54335 54.8011ZM1.4715 56.6558C1.02349 56.0885 1.07483 55.2695 1.54334 54.8011L0.170408 53.4278C-1.03128 54.6292 -1.07818 56.5604 -0.0524911 57.8593L1.4715 56.6558ZM3.35956 57.1092C2.74024 57.475 1.99668 57.3447 1.48175 56.669L-0.0627362 57.8461C0.994282 59.2331 2.80515 59.6921 4.34726 58.7811L3.35956 57.1092ZM4.00204 56.5709C3.79812 56.7748 3.55248 56.9789 3.31493 57.1372L4.3919 58.753C4.74382 58.5185 5.08766 58.2314 5.37498 57.9442L4.00204 56.5709ZM28.6175 31.9615L4.00204 56.5709L5.37498 57.9442L29.9905 33.3348L28.6175 31.9615ZM54.9439 56.9142C54.1448 56.1153 42.3029 44.2763 29.9906 31.9616L28.6174 33.3346C40.9298 45.6495 52.7718 57.4885 53.5709 58.2874L54.9439 56.9142ZM56.7998 56.986C56.2321 57.434 55.4125 57.3827 54.9439 56.9142L53.5709 58.2874C54.7725 59.4887 56.7038 59.5356 58.0028 58.5103L56.7998 56.986ZM57.2532 55.099C57.6189 55.7179 57.4888 56.4609 56.813 56.9757L57.9896 58.5205C59.3769 57.4638 59.8363 55.653 58.9249 54.111L57.2532 55.099ZM56.7148 54.4567C56.9188 54.6606 57.1229 54.9062 57.2812 55.1437L58.8968 54.0663C58.6622 53.7145 58.3751 53.3707 58.0878 53.0835L56.7148 54.4567ZM32.1026 29.8506L56.7148 54.4567L58.0878 53.0835L33.4755 28.4773L32.1026 29.8506ZM56.7607 3.82525L32.1026 28.4773L33.4755 29.8506L58.1336 5.19852L56.7607 3.82525ZM57.1045 3.48147L56.7607 3.82525L58.1336 5.19852L58.4775 4.85474L57.1045 3.48147ZM57.2059 1.65014C57.6089 2.19684 57.5561 3.00112 57.0841 3.50258L58.498 4.83364C59.5978 3.6653 59.7416 1.81756 58.7691 0.498038L57.2059 1.65014ZM55.3269 1.20589C55.9882 0.87532 56.7557 1.05001 57.2108 1.65674L58.7642 0.491436C57.7456 -0.866293 55.9587 -1.28094 54.4586 -0.531056L55.3269 1.20589ZM54.7932 1.61339C54.9917 1.41499 55.154 1.29227 55.3269 1.20589L54.4586 -0.531058C54.0419 -0.322775 53.7131 -0.0525969 53.4203 0.240116L54.7932 1.61339ZM30.0006 26.3771C42.2704 14.122 54.0201 2.3863 54.7932 1.61339L53.4203 0.240115C52.6476 1.01259 40.8985 12.7477 28.6283 25.0032L30.0006 26.3771ZM3.95619 1.71107L28.628 26.3768L30.0009 25.0035L5.32913 0.337796L3.95619 1.71107ZM3.61232 1.36729L3.95619 1.71107L5.32913 0.337796L4.98526 -0.00598447L3.61232 1.36729ZM1.77988 1.26593C2.32693 0.862938 3.13177 0.915725 3.63344 1.38777L4.96415 -0.0264617C3.79562 -1.12598 1.94779 -1.26964 0.628147 -0.297516L1.77988 1.26593ZM1.33555 3.14393C1.00507 2.48313 1.17958 1.71609 1.78648 1.26102L0.621544 -0.292608C-0.736497 0.725672 -1.15147 2.51242 -0.401227 4.01253L1.33555 3.14393Z" fill="white" mask="url(#path-1-inside-1)"/>
</svg>
