<svg width="191" height="191" viewBox="0 0 191 191" fill="none" xmlns="http://www.w3.org/2000/svg">
  <circle cx="95.0757" cy="95.4707" r="92.4091" stroke="#E84848" stroke-width="5.18182"/>
  <path fill-rule="evenodd" clip-rule="evenodd" d="M109.33 83.8414C110.119 84.6298 110.119 85.9082 109.33 86.6967L85.1019 110.925C84.3135 111.713 83.0351 111.713 82.2466 110.925C81.4582 110.136 81.4582 108.858 82.2466 108.07L106.475 83.8414C107.263 83.0529 108.542 83.0529 109.33 83.8414Z" fill="#E84848" stroke="#E84848" stroke-width="1.72727" stroke-linecap="round" stroke-linejoin="round"/>
  <path fill-rule="evenodd" clip-rule="evenodd" d="M82.2466 83.8414C83.0351 83.0529 84.3135 83.0529 85.1019 83.8414L109.33 108.07C110.119 108.858 110.119 110.136 109.33 110.925C108.542 111.713 107.263 111.713 106.475 110.925L82.2466 86.6967C81.4582 85.9082 81.4582 84.6298 82.2466 83.8414Z" fill="#E84848" stroke="#E84848" stroke-width="1.72727" stroke-linecap="round" stroke-linejoin="round"/>
</svg>
