<svg width="343" height="87" viewBox="0 0 343 87" fill="none" xmlns="http://www.w3.org/2000/svg">
  <path d="M130.66 23.197C131.323 23.197 131.709 23.5224 131.709 24.2277V28.5675C131.709 29.327 131.378 29.6525 130.66 29.6525H105.484C98.6373 29.6525 96.484 31.8224 96.484 38.6035V39.9054H130.329C130.991 39.9054 131.378 40.1767 131.378 40.9361V44.5708C131.378 45.2218 131.047 45.6015 130.329 45.6015H96.484V47.3374C96.484 54.1727 98.6925 56.2884 105.484 56.2884H130.66C131.323 56.2884 131.709 56.6139 131.709 57.3734V61.7132C131.709 62.3642 131.378 62.744 130.66 62.744H105.428C93.8891 62.744 89.5273 58.6753 89.5273 47.8257V38.1152C89.5273 27.2656 93.8891 23.197 105.428 23.197H130.66Z" fill="black"/>
  <path d="M168.094 32.2022C178.308 32.2022 181.565 35.4028 181.565 43.4316V61.7133C181.565 62.3642 181.234 62.744 180.516 62.744H175.934C175.271 62.744 174.885 62.4185 174.885 61.7133V44.9505C174.885 39.797 173.56 38.061 167.707 38.061H152.358C146.616 38.061 144.96 39.797 144.96 44.9505V61.7133C144.96 62.3642 144.629 62.744 143.911 62.744H139.328C138.666 62.744 138.279 62.4185 138.279 61.7133V43.3773C138.279 35.3486 141.537 32.1479 151.751 32.1479H168.094V32.2022Z" fill="black"/>
  <path d="M192.773 32.2022V30.6832C192.773 22.763 195.203 19.5623 204.257 19.5623H210.938C211.49 19.5623 211.821 19.8336 211.821 20.4303V24.2277C211.821 24.7702 211.545 25.0956 210.938 25.0956H205.362C200.779 25.0956 199.509 26.8316 199.509 30.7375V32.2022H210.607C211.159 32.2022 211.49 32.4734 211.49 33.0701V36.8675C211.49 37.41 211.214 37.7355 210.607 37.7355H199.509V61.7675C199.509 62.4185 199.178 62.7982 198.405 62.7982H193.878C193.105 62.7982 192.773 62.4727 192.773 61.7675V37.627H187.197C186.645 37.627 186.313 37.3558 186.313 36.759V32.9616C186.313 32.4192 186.59 32.0937 187.197 32.0937H192.773V32.2022Z" fill="black"/>
  <path d="M241.856 32.2022C252.07 32.2022 255.383 35.3486 255.383 43.4316V58.2414C255.383 61.876 254.444 62.6897 251.187 62.6897H224.133C217.397 62.6897 215.354 60.3028 215.354 54.7695V52.2741C215.354 47.663 217.397 45.059 224.133 45.059H248.647V43.7028C248.647 39.4172 247.046 37.7898 241.194 37.7898H217.176C216.624 37.7898 216.293 37.5185 216.293 36.9218V33.0159C216.293 32.4734 216.569 32.1479 217.176 32.1479H241.856V32.2022ZM248.702 55.4205V49.2362H226.01C222.974 49.2362 221.925 50.4296 221.925 52.5995V53.9015C221.925 56.4512 222.974 57.5904 226.01 57.5904H246.715C248.261 57.5904 248.702 57.0479 248.702 55.4205Z" fill="black"/>
  <path d="M296.958 32.2022C297.565 32.2022 297.841 32.4734 297.841 33.0702V36.976C297.841 37.5185 297.62 37.844 296.958 37.844H274.597C268.745 37.844 267.143 39.5257 267.143 44.7335V50.3211C267.143 55.5289 268.745 57.2106 274.597 57.2106H296.958C297.565 57.2106 297.841 57.4819 297.841 58.0786V61.9845C297.841 62.527 297.62 62.8524 296.958 62.8524H273.99C263.72 62.8524 260.518 59.6518 260.518 51.6231V43.3773C260.518 35.2943 263.72 32.1479 273.99 32.1479H296.958V32.2022Z" fill="black"/>
  <path d="M332.459 32.2022C340.188 32.2022 342.286 34.5891 342.286 41.2617V46.3067C342.286 48.6937 341.237 49.4532 339.029 49.4532H308.938V51.1891C308.938 55.4205 310.595 57.1022 316.447 57.1022H340.464C341.016 57.1022 341.348 57.3734 341.348 57.9701V61.876C341.348 62.4185 341.072 62.744 340.464 62.744H315.84C305.57 62.744 302.313 59.5433 302.313 51.5146V43.3773C302.313 35.2943 305.57 32.1479 315.84 32.1479H332.459V32.2022ZM308.938 45.276H334.557C335.385 45.276 335.771 45.0048 335.771 44.0826V41.4787C335.771 38.4407 334.722 37.3015 331.244 37.3015H316.502C310.65 37.3015 308.994 38.9832 308.994 43.2688V45.276H308.938Z" fill="black"/>
  <path d="M59.5484 35.7284C58.665 35.7284 59.1619 31.4428 58.941 24.8245C58.8858 22.7631 58.3337 19.6709 57.0086 16.3618C54.0272 9.03827 47.0153 0.738281 31.6113 0.738281C16.2072 0.738281 9.19531 9.03827 6.21388 16.3618C4.8888 19.6709 4.3919 22.7631 4.28147 24.8245C4.06063 31.3886 4.55753 35.7284 3.72936 35.7284C2.40428 35.6742 0.195811 35.0774 0.306234 39.4715C0.416657 43.9199 2.0178 47.663 2.0178 50.4297C2.0178 50.9722 2.07301 51.5147 2.18343 51.9487C2.56991 53.0336 3.23245 54.0101 4.22626 54.0101C5.44092 54.0643 5.93782 53.3049 6.10346 54.6068C6.26909 56.4513 8.03587 61.8761 8.86404 64.2088C12.8945 75.8179 23.4951 84.4434 26.1453 85.4741C27.636 86.0166 29.6236 86.2878 31.6113 86.2878C33.5989 86.2878 35.5865 86.0708 37.0772 85.4741C39.7826 84.4434 50.328 75.8721 54.3585 64.2088C55.1866 61.8218 56.9534 56.397 57.119 54.6068C57.2295 53.3049 57.7264 54.0643 58.9962 54.0101C59.9901 54.0101 60.6526 53.0336 61.0391 51.9487C61.1495 51.5147 61.2047 51.0264 61.2047 50.4297C61.2047 47.663 62.8058 43.9199 62.9163 39.4715C63.0267 35.0232 60.8734 35.6742 59.5484 35.7284Z" fill="#00AEEF"/>
  <path d="M61.7567 34.0468C61.7567 33.9383 61.6463 33.8298 61.4807 33.8298C60.3212 33.7213 53.5854 33.016 46.9048 33.3415C40.9971 33.6128 34.2613 35.9454 33.7644 36.1082C33.654 36.1082 33.4884 36.1624 33.3779 36.1624C32.9362 36.2167 31.7216 36.2709 31.6664 36.2709C31.6664 36.2709 30.3965 36.2167 29.9548 36.1624C29.7892 36.1624 29.6788 36.1082 29.5683 36.1082C29.0162 35.8912 22.2804 33.5585 16.3175 33.3415C9.69212 33.016 2.90108 33.7213 1.74164 33.8298C1.63122 33.8298 1.52079 33.9383 1.46558 34.0468C1.29995 34.8062 1.46558 37.1932 1.63122 37.8984C1.63122 38.0069 1.74164 38.1154 1.90727 38.1154C2.34897 38.2239 3.01151 38.3324 3.28757 39.2003C3.61884 40.1768 4.55744 46.3611 6.65548 48.965C8.53268 51.2977 11.8454 53.0337 15.931 53.0337C20.348 53.0337 24.4336 51.6775 26.8077 47.7716C29.1818 43.8657 29.4579 41.4245 29.8444 40.7193C30.2861 39.9598 31.556 39.9598 31.6112 39.9598C31.6112 39.9598 32.9362 39.9598 33.3779 40.7193C33.7644 41.4245 34.0957 43.8657 36.4146 47.7716C38.7887 51.6775 42.8191 53.0337 47.2361 53.0337C51.3217 53.0337 54.6344 51.2977 56.5116 48.965C58.6649 46.3611 59.6035 40.1768 59.8795 39.2003C60.1556 38.3324 60.8734 38.2239 61.2598 38.1154C61.3703 38.1154 61.4807 38.0069 61.5359 37.8984C61.7567 37.1932 61.9224 34.8062 61.7567 34.0468ZM20.0719 50.3755C17.753 51.4062 13.7226 51.135 11.4037 50.1043C6.37942 47.9886 5.88252 41.5873 5.88252 38.9291C5.88252 37.0304 7.09717 35.5115 10.962 35.2945C14.9924 35.0232 21.4522 35.7285 24.268 36.8677C26.8077 37.8984 26.6973 39.6886 26.6973 40.5566C26.7525 42.0755 25.7035 47.8801 20.0719 50.3755ZM51.8186 50.1043C49.4997 51.0807 45.4693 51.4062 43.1504 50.3755C37.5188 47.8801 36.4698 42.0755 36.525 40.5566C36.525 39.6886 36.4146 37.8441 38.9543 36.8677C41.8253 35.7285 48.2299 35.0775 52.2603 35.2945C56.0699 35.5657 57.3398 37.0304 57.3398 38.9291C57.3398 41.5873 56.8429 47.9886 51.8186 50.1043Z" fill="#17191C"/>
</svg>
