<svg width="68" height="63" viewBox="0 0 68 63" fill="none" xmlns="http://www.w3.org/2000/svg">
  <path d="M62.1498 31.9846C62.1925 30.4263 60.9647 29.1255 59.404 29.0842C57.8457 29.0414 56.5463 30.2717 56.5035 31.8299C56.249 40.8863 51.1489 49.1908 43.1915 53.499C30.8654 60.1725 15.4109 55.5745 8.73742 43.2485C2.06398 30.9225 6.66191 15.4679 18.9879 8.79447C26.9429 4.48759 36.6808 4.75533 44.4047 9.48893C45.7329 10.305 47.4734 9.88935 48.2867 8.55618C49.1066 7.22911 48.6935 5.48729 47.354 4.67415C37.9202 -1.11199 26.0194 -1.43563 16.2987 3.82729C1.23571 11.9825 -4.38499 30.8748 3.77025 45.9378C11.9255 61.0007 30.8178 66.6214 45.8807 58.4662C55.6065 53.2006 61.842 43.0546 62.1498 31.9846Z" fill="white"/>
  <path fill-rule="evenodd" clip-rule="evenodd" d="M66.5278 5.59026C67.693 6.80022 67.693 8.76195 66.5278 9.97191L33.7088 44.0532C32.5437 45.2631 30.6546 45.2631 29.4895 44.0532L14.5717 28.5617C13.4066 27.3517 13.4066 25.39 14.5717 24.18C15.7369 22.9701 17.6259 22.9701 18.7911 24.18L31.5991 37.4807L62.3085 5.59026C63.4736 4.3803 65.3627 4.3803 66.5278 5.59026Z" fill="white"/>
</svg>
