<svg width="484" height="676" viewBox="0 0 484 676" fill="none" xmlns="http://www.w3.org/2000/svg">
  <path d="M430.616 674.122C424.621 666.966 420.174 658.651 418.433 648.595C413.792 622.294 411.665 595.606 408.957 568.919C408.57 565.631 410.117 561.764 411.665 558.669C421.721 537.784 429.843 516.124 434.291 493.304C434.678 491.177 435.838 488.47 437.578 487.309C448.408 479.574 454.21 468.938 457.111 456.174C458.851 448.825 461.172 441.863 463.492 434.708C468.714 418.463 475.096 402.412 478.963 385.781C485.152 358.513 480.124 333.18 462.525 310.747C461.365 309.393 460.785 307.266 460.785 305.719C460.785 292.762 460.978 279.611 461.365 266.654C461.365 264.527 462.525 261.626 464.073 260.659C476.063 253.311 478.77 241.127 479.737 228.75C483.605 179.437 472.968 133.99 444.927 92.6055C422.881 59.9231 395.033 34.2025 357.709 20.2786C317.098 5.00101 274.746 -0.607227 231.621 2.87375C195.071 5.77456 160.067 14.6704 130.286 37.4901C123.324 42.905 115.588 45.419 107.273 47.1595C70.7224 55.2818 48.2894 77.9081 38.4266 113.878C30.3044 142.886 26.2432 172.668 25.8565 202.643C25.2763 235.906 26.8234 269.168 27.2102 302.624C27.2102 305.138 26.4366 308.619 24.6961 309.973C6.32432 324.09 -0.250852 344.203 3.81029 365.282C9.99869 397.578 19.6681 429.293 28.9507 461.009C31.2713 468.551 38.2333 474.739 42.8746 481.701C44.8084 484.602 47.7092 487.309 48.2894 490.404C54.2844 520.765 62.0199 550.16 80.5851 575.494C82.7124 578.395 83.8727 582.843 83.2925 586.324C79.8116 608.563 75.7504 630.609 71.6893 652.656C70.1422 660.778 67.4348 668.127 62.9869 674.122" stroke="#00AEEF" stroke-width="3.75378" stroke-miterlimit="10" stroke-linecap="round"/>
  <path d="M388.65 674.122C376.467 644.727 372.599 592.706 371.826 572.4C370.859 548.226 384.976 530.822 392.131 509.549C399.287 488.276 403.154 458.301 403.154 458.301C403.154 458.301 405.669 459.268 413.017 457.914C420.366 456.561 422.3 447.278 425.201 432.774C428.101 418.27 436.804 407.634 441.639 386.748C446.473 365.862 445.506 356.193 440.091 341.302C434.677 326.411 420.173 332.019 420.173 332.019C420.173 332.019 424.62 304.365 424.62 278.257C424.62 252.15 423.654 233.198 423.654 233.198L442.606 229.717C442.606 229.717 445.506 205.931 442.606 185.625C439.705 165.319 435.837 137.278 403.928 96.6666C372.019 56.0552 325.606 35.7495 247.091 35.7495C168.575 35.7495 134.926 77.908 134.926 77.908C134.926 77.908 128.157 73.0733 99.5361 85.2567C70.9147 97.4401 64.1462 136.118 59.8916 201.289C55.6371 266.461 65.4999 334.92 65.4999 334.92C65.4999 334.92 49.2553 328.151 40.5529 340.915C31.8505 353.679 41.5198 386.361 45.9677 396.224C50.4157 406.087 54.8636 435.095 60.6652 447.471C66.4668 459.848 76.3296 455.981 76.3296 455.981C76.3296 455.981 86.9659 517.865 95.6683 532.369C104.371 546.873 116.941 563.311 117.908 577.815C118.681 588.838 110.946 641.246 100.116 674.122" stroke="#E84848" stroke-width="3.75378" stroke-miterlimit="10" stroke-linecap="round" stroke-linejoin="round"/>
</svg>
